<?xml version="1.0" standalone="no"?>
<!DOCTYPE svg PUBLIC "-//W3C//DTD SVG 20010904//EN"
 "http://www.w3.org/TR/2001/REC-SVG-20010904/DTD/svg10.dtd">
<svg version="1.0" xmlns="http://www.w3.org/2000/svg"
 width="110.000000pt" height="110.000000pt" viewBox="0 0 110.000000 110.000000"
 preserveAspectRatio="xMidYMid meet">
<metadata>
Created by potrace 1.14, written by Peter Selinger 2001-2017
</metadata>
<g transform="translate(0.000000,110.000000) scale(0.100000,-0.100000)"
fill="#000000" stroke="none">
<path d="M490 1029 c-291 -36 -499 -327 -434 -607 22 -96 60 -165 131 -242
244 -263 677 -188 831 143 12 27 22 57 22 66 0 9 5 22 11 28 5 5 9 32 7 59
l-3 49 -53 1 c-58 1 -72 -11 -72 -63 -1 -34 -39 -129 -65 -162 -45 -54 -62
-70 -110 -100 -65 -41 -113 -53 -211 -53 -71 0 -90 4 -148 32 -106 50 -186
143 -212 245 -12 49 -10 167 3 214 44 150 192 266 346 270 26 1 27 2 27 60 0
33 -3 61 -7 63 -5 2 -33 1 -63 -3z"/>
<path d="M860 913 c-47 -47 -144 -143 -216 -213 l-131 -128 43 -43 44 -43 88
86 c48 48 144 143 215 211 70 68 127 127 127 132 0 9 -73 86 -80 84 -3 -1 -43
-40 -90 -86z"/>
</g>
</svg>
