<?xml version="1.0" standalone="no"?>
<!DOCTYPE svg PUBLIC "-//W3C//DTD SVG 20010904//EN"
 "http://www.w3.org/TR/2001/REC-SVG-20010904/DTD/svg10.dtd">
<svg version="1.0" xmlns="http://www.w3.org/2000/svg"
 width="849.000000pt" height="294.000000pt" viewBox="0 0 849.000000 294.000000"
 preserveAspectRatio="xMidYMid meet">

<g transform="translate(0.000000,294.000000) scale(0.100000,-0.100000)"
fill="#000000" stroke="none">
<path d="M3736 1905 c-144 -40 -274 -145 -335 -270 -44 -89 -47 -97 -61 -172
-12 -58 -11 -83 6 -183 13 -82 69 -184 143 -263 144 -153 370 -206 564 -133
87 33 142 69 207 136 84 87 140 211 140 313 l0 47 -55 0 c-54 0 -54 0 -64 -37
-6 -21 -11 -46 -11 -56 0 -35 -52 -127 -101 -182 -33 -36 -74 -66 -117 -87
-63 -31 -72 -33 -177 -33 -103 0 -114 2 -178 32 -365 173 -289 701 113 775
l60 12 0 58 0 58 -42 -1 c-24 0 -65 -7 -92 -14z"/>
<path d="M697 1823 c-4 -3 -7 -26 -7 -50 l0 -43 104 0 c85 0 105 -3 110 -16 3
-9 6 -184 6 -390 l0 -374 50 0 50 0 0 374 c0 206 3 381 6 390 5 13 25 16 111
16 l104 0 -3 48 -3 47 -261 3 c-143 1 -263 -1 -267 -5z"/>
<path d="M2705 1818 c-3 -7 -4 -204 -3 -438 l3 -425 53 -3 52 -3 0 221 c0 241
2 250 60 305 28 27 38 30 95 30 57 0 67 -3 95 -30 58 -55 60 -64 60 -305 l0
-220 56 0 56 0 -4 233 c-3 218 -5 235 -27 279 -27 55 -80 110 -131 135 -52 27
-154 24 -203 -5 -21 -12 -42 -22 -48 -22 -5 0 -9 55 -9 130 l0 130 -50 0 c-31
0 -52 -5 -55 -12z"/>
<path d="M4520 1390 l0 -440 50 0 50 0 2 188 3 187 185 0 185 0 3 -188 2 -188
53 3 52 3 0 435 0 435 -52 3 -53 3 -2 -193 -3 -193 -174 -3 c-119 -2 -178 1
-187 9 -11 9 -14 51 -14 195 l0 184 -50 0 -50 0 0 -440z"/>
<path d="M6030 1593 c0 -10 11 -45 24 -78 13 -33 27 -67 30 -75 3 -8 47 -121
98 -250 l93 -235 55 -3 55 -2 28 72 c31 79 42 106 57 141 46 106 168 432 164
439 -8 12 -92 10 -101 -4 -4 -6 -49 -113 -98 -237 -50 -123 -95 -226 -101
-228 -6 -2 -26 33 -44 79 -18 46 -39 99 -47 118 -8 19 -19 44 -23 55 -4 11
-15 36 -23 55 -8 19 -25 62 -37 95 -13 33 -29 63 -34 67 -6 4 -30 8 -53 8 -34
0 -43 -4 -43 -17z"/>
<path d="M1425 1586 c-79 -31 -144 -86 -183 -158 -44 -78 -47 -221 -7 -298 30
-58 107 -132 165 -158 76 -35 204 -36 267 -4 49 26 105 73 133 112 l20 29 -42
25 -42 25 -42 -39 c-24 -22 -59 -46 -80 -55 -96 -40 -215 1 -271 93 -46 75
-55 72 236 72 143 0 266 3 275 6 21 8 21 55 0 124 -33 111 -105 187 -214 227
-43 15 -174 15 -215 -1z m210 -100 c69 -29 138 -135 104 -157 -8 -5 -104 -8
-214 -6 -197 2 -200 2 -203 24 -4 30 43 98 86 125 62 38 154 44 227 14z"/>
<path d="M2182 1579 c-64 -25 -146 -103 -176 -168 -30 -66 -30 -207 1 -273 30
-66 93 -130 160 -163 77 -38 191 -40 268 -6 53 23 128 88 119 103 -3 4 -23 17
-44 28 -38 19 -38 19 -63 -1 -97 -75 -229 -63 -308 30 -63 72 -74 148 -35 233
30 66 59 94 125 118 80 31 141 23 208 -26 17 -13 34 -24 38 -24 3 0 24 12 46
26 l41 26 -28 29 c-16 17 -57 44 -90 60 -78 37 -179 40 -262 8z"/>
<path d="M5434 1570 c-71 -35 -137 -101 -167 -168 -15 -36 -20 -67 -20 -132 1
-104 24 -162 92 -230 68 -68 128 -93 226 -94 70 -1 86 2 125 26 25 14 55 36
68 48 29 27 42 18 42 -31 l0 -39 55 0 55 0 0 320 0 320 -55 0 -55 0 0 -33 c0
-44 -9 -51 -34 -28 -82 77 -223 94 -332 41z m219 -90 c63 -24 98 -58 126 -123
35 -82 23 -158 -38 -228 -44 -52 -101 -78 -169 -79 -99 0 -177 55 -213 151
-18 49 -19 60 -7 113 22 103 115 183 215 185 18 1 56 -8 86 -19z"/>
<path d="M6895 1580 c-62 -24 -137 -94 -172 -163 -24 -45 -27 -64 -27 -142 0
-80 3 -97 29 -149 34 -68 88 -118 165 -154 77 -37 193 -38 264 -2 56 27 146
108 146 131 0 9 -17 25 -37 36 l-38 21 -45 -40 c-84 -75 -166 -88 -259 -42
-58 29 -111 92 -111 130 l0 24 268 2 267 3 3 51 c7 116 -85 249 -203 293 -73
27 -180 28 -250 1z m235 -100 c55 -28 101 -88 98 -125 l-3 -30 -203 -3 c-220
-3 -222 -2 -208 52 13 53 79 109 151 127 43 11 122 1 165 -21z"/>
<path d="M7652 1574 c-42 -25 -62 -25 -62 2 0 10 -13 14 -50 14 l-50 0 0 -320
0 -320 50 0 50 0 0 208 c0 199 1 211 23 253 44 82 134 110 211 66 75 -42 81
-63 84 -309 l4 -218 50 0 50 0 -4 238 c-3 254 -3 251 -61 325 -67 86 -206 115
-295 61z"/>
</g>
</svg>
